<?xml version="1.0" encoding="UTF-8"?>
<svg width="131px" height="131px" viewBox="0 0 131 131" version="1.1" xmlns="http://www.w3.org/2000/svg" xmlns:xlink="http://www.w3.org/1999/xlink">
    <!-- Generator: Sketch 52.5 (67469) - http://www.bohemiancoding.com/sketch -->
    <title>Shape</title>
    <desc>Created with Sketch.</desc>
    <g id="Login" stroke="none" stroke-width="1" fill="none" fill-rule="evenodd" fill-opacity="0.097022">
        <g id="Group-4" transform="translate(-547.000000, -76.000000)" fill="#21E6C1" fill-rule="nonzero">
            <g id="Group-6" transform="translate(446.000000, 76.000000)">
                <g id="Group-5">
                    <g id="cube" transform="translate(101.000000, 0.000000)">
                        <path d="M0,109.727715 L1.07276665,32.7061964 L52.5500633,0 L128.767653,20.3310884 L131,98.2612416 L80.3722353,131 L0,109.727715 Z M74.6037892,88.3174291 L55.2443819,84.3836302 L16.041892,104.82791 L74.3278463,120.279351 L74.6037892,88.3174291 Z M9.48592358,97.6782269 L49.0403181,77.1750252 L49.2216963,52.3178197 L10.4982308,44.0067586 L9.48592358,97.6782269 Z M49.3054093,40.8559981 L49.5069406,13.3054507 L14.7303883,34.0613955 L49.3054093,40.8559981 Z M59.7168266,12.8433805 L59.0223187,75.5050601 L74.685952,78.7457537 L74.8657799,57.8254483 L67.173485,56.1740901 L68.6012568,44.648695 L79.7304356,46.8350003 L115.67897,27.0466118 L59.7168266,12.8433805 Z M84.1532727,116.992141 L115.500692,96.6269397 L91.7696058,91.8062141 L92.588133,82.4500681 L120.920334,88.3127774 L120.019644,35.9887554 L83.9517414,55.6763567 L84.1532727,116.992141 Z" id="Shape"></path>
                    </g>
                </g>
            </g>
        </g>
    </g>
</svg>